<?xml version="1.0" encoding="UTF-8" standalone="no"?>
<svg
   height="24px"
   viewBox="0 -960 960 960"
   width="24px"
   fill="#5f6368"
   version="1.1"
   id="svg4"
   sodipodi:docname="system.svg"
   inkscape:version="1.3.2 (1:1.3.2+202404261509+091e20ef0f)"
   xmlns:inkscape="http://www.inkscape.org/namespaces/inkscape"
   xmlns:sodipodi="http://sodipodi.sourceforge.net/DTD/sodipodi-0.dtd"
   xmlns="http://www.w3.org/2000/svg"
   xmlns:svg="http://www.w3.org/2000/svg">
  <defs
     id="defs8">
    <inkscape:path-effect
       effect="knot"
       id="path-effect19"
       is_visible="true"
       lpeversion="1"
       switcher_size="9.8"
       interruption_width="3"
       prop_to_stroke_width="true"
       add_stroke_width="inkscape_1.0_and_up"
       both="true"
       inverse_width="true"
       add_other_stroke_width="inkscape_1.0_and_up"
       crossing_points_vector="" />
    <inkscape:path-effect
       effect="knot"
       id="path-effect3"
       is_visible="true"
       lpeversion="1"
       switcher_size="9.8"
       interruption_width="3"
       prop_to_stroke_width="true"
       add_stroke_width="inkscape_1.0_and_up"
       both="true"
       inverse_width="true"
       add_other_stroke_width="inkscape_1.0_and_up"
       crossing_points_vector="" />
    <inkscape:path-effect
       effect="rough_hatches"
       id="path-effect2"
       is_visible="true"
       lpeversion="1.2"
       direction="480,-485 , 200,0"
       dist_rdm="75;1"
       growth="0"
       do_bend="true"
       bender="480,-480 , 5,0"
       bottom_edge_variation="80;1"
       top_edge_variation="80;1"
       bottom_tgt_variation="0;1"
       top_tgt_variation="0;1"
       scale_bf="1"
       scale_bb="1"
       scale_tf="1"
       scale_tb="1"
       top_smth_variation="0;1"
       bottom_smth_variation="0;1"
       fat_output="true"
       stroke_width_top="1"
       stroke_width_bottom="1"
       front_thickness="1"
       back_thickness="0.25" />
    <inkscape:path-effect
       effect="fillet_chamfer"
       id="path-effect1"
       is_visible="true"
       lpeversion="1"
       nodesatellites_param="F,0,1,1,0,125.28131,0,1 @ F,0,1,1,0,125.28131,0,1 @ F,0,0,1,0,125.28131,0,1 @ F,0,1,1,0,125.28131,0,1"
       radius="0"
       unit="px"
       method="auto"
       mode="F"
       chamfer_steps="1"
       flexible="false"
       use_knot_distance="true"
       apply_no_radius="true"
       apply_with_radius="true"
       only_selected="false"
       hide_knots="false" />
    <filter
       inkscape:collect="always"
       style="color-interpolation-filters:sRGB"
       id="filter19"
       x="-0.022766637"
       y="-0.022766637"
       width="1.0455333"
       height="1.0455333">
      <feGaussianBlur
         inkscape:collect="always"
         stdDeviation="7.5888789"
         id="feGaussianBlur19" />
    </filter>
  </defs>
  <sodipodi:namedview
     id="namedview6"
     pagecolor="#ffffff"
     bordercolor="#666666"
     borderopacity="1.0"
     inkscape:showpageshadow="2"
     inkscape:pageopacity="0.0"
     inkscape:pagecheckerboard="0"
     inkscape:deskcolor="#d1d1d1"
     showgrid="false"
     inkscape:zoom="21.9375"
     inkscape:cx="16.660969"
     inkscape:cy="12.17094"
     inkscape:window-width="1516"
     inkscape:window-height="1200"
     inkscape:window-x="970"
     inkscape:window-y="150"
     inkscape:window-maximized="0"
     inkscape:current-layer="svg4" />
  <rect
     style="font-variation-settings:'wght' 700;opacity:1;fill:#800000;fill-opacity:0.27794;stroke-width:32.5115"
     id="rect1"
     width="779.05359"
     height="779.05359"
     x="90.473198"
     y="-869.52679"
     ry="143.44986" />
  <path
     d="m 220,-80 c -38.66667,0 -71.66667,-13.666667 -99,-41 -27.333333,-27.33333 -41,-60.33333 -41,-99 0,-38.66667 13.666667,-71.66667 41,-99 27.33333,-27.33333 60.33333,-41 99,-41 12,0 23.66667,1.5 35,4.5 11.33333,3 22,7.16667 32,12.5 l 153,-153 v -110 c -29.33333,-8.66667 -53.33333,-25.16667 -72,-49.5 -18.66667,-24.33333 -28,-52.5 -28,-84.5 0,-38.66667 13.66667,-71.66667 41,-99 27.33333,-27.33333 60.33333,-41 99,-41 38.66667,0 71.66667,13.66667 99,41 27.33333,27.33333 41,60.33333 41,99 0,32 -9.33333,60.16667 -28,84.5 -18.66667,24.33333 -42.66667,40.83333 -72,49.5 v 110 l 154,153 c 10,-5.33333 20.5,-9.5 31.5,-12.5 11,-3 22.5,-4.5 34.5,-4.5 38.66667,0 71.66667,13.66667 99,41 27.33333,27.33333 41,60.33333 41,99 0,38.66667 -13.66667,71.66667 -41,99 -27.33333,27.333333 -60.33333,41 -99,41 -38.66667,0 -71.66667,-13.666667 -99,-41 -27.33333,-27.33333 -41,-60.33333 -41,-99 0,-12 1.5,-23.66667 4.5,-35 3,-11.33333 7.16667,-22 12.5,-32 L 480,-424 343,-287 c 5.33333,10 9.5,20.66667 12.5,32 3,11.33333 4.5,23 4.5,35 0,38.66667 -13.66667,71.66667 -41,99 -27.33333,27.333333 -60.33333,41 -99,41 z m 520,-80 c 16.66667,0 30.83333,-5.83333 42.5,-17.5 11.66667,-11.66667 17.5,-25.83333 17.5,-42.5 0,-16.66667 -5.83333,-30.83333 -17.5,-42.5 -11.66667,-11.66667 -25.83333,-17.5 -42.5,-17.5 -16.66667,0 -30.83333,5.83333 -42.5,17.5 -11.66667,11.66667 -17.5,25.83333 -17.5,42.5 0,16.66667 5.83333,30.83333 17.5,42.5 11.66667,11.66667 25.83333,17.5 42.5,17.5 z M 480,-680 c 16.66667,0 30.83333,-5.83333 42.5,-17.5 11.66667,-11.66667 17.5,-25.83333 17.5,-42.5 0,-16.66667 -5.83333,-30.83333 -17.5,-42.5 -11.66667,-11.66667 -25.83333,-17.5 -42.5,-17.5 -16.66667,0 -30.83333,5.83333 -42.5,17.5 -11.66667,11.66667 -17.5,25.83333 -17.5,42.5 0,16.66667 5.83333,30.83333 17.5,42.5 11.66667,11.66667 25.83333,17.5 42.5,17.5 z m -260,520 c 16.66667,0 30.83333,-5.83333 42.5,-17.5 11.66667,-11.66667 17.5,-25.83333 17.5,-42.5 0,-16.66667 -5.83333,-30.83333 -17.5,-42.5 -11.66667,-11.66667 -25.83333,-17.5 -42.5,-17.5 -16.66667,0 -30.83333,5.83333 -42.5,17.5 -11.66667,11.66667 -17.5,25.83333 -17.5,42.5 0,16.66667 5.83333,30.83333 17.5,42.5 11.66667,11.66667 25.83333,17.5 42.5,17.5 z"
     id="path2"
     style="opacity:1;mix-blend-mode:normal;fill:#f9f9f9;fill-opacity:1;filter:url(#filter19)"
     inkscape:original-d="m 220,-80 q -58,0 -99,-41 -41,-41 -41,-99 0,-58 41,-99 41,-41 99,-41 18,0 35,4.5 17,4.5 32,12.5 l 153,-153 v -110 q -44,-13 -72,-49.5 -28,-36.5 -28,-84.5 0,-58 41,-99 41,-41 99,-41 58,0 99,41 41,41 41,99 0,48 -28,84.5 -28,36.5 -72,49.5 v 110 l 154,153 q 15,-8 31.5,-12.5 16.5,-4.5 34.5,-4.5 58,0 99,41 41,41 41,99 0,58 -41,99 -41,41 -99,41 -58,0 -99,-41 -41,-41 -41,-99 0,-18 4.5,-35 4.5,-17 12.5,-32 L 480,-424 343,-287 q 8,15 12.5,32 4.5,17 4.5,35 0,58 -41,99 -41,41 -99,41 z m 520,-80 q 25,0 42.5,-17.5 Q 800,-195 800,-220 800,-245 782.5,-262.5 765,-280 740,-280 q -25,0 -42.5,17.5 -17.5,17.5 -17.5,42.5 0,25 17.5,42.5 Q 715,-160 740,-160 Z M 480,-680 q 25,0 42.5,-17.5 Q 540,-715 540,-740 540,-765 522.5,-782.5 505,-800 480,-800 q -25,0 -42.5,17.5 -17.5,17.5 -17.5,42.5 0,25 17.5,42.5 17.5,17.5 42.5,17.5 z m -260,520 q 25,0 42.5,-17.5 Q 280,-195 280,-220 280,-245 262.5,-262.5 245,-280 220,-280 q -25,0 -42.5,17.5 -17.5,17.5 -17.5,42.5 0,25 17.5,42.5 17.5,17.5 42.5,17.5 z"
     inkscape:path-effect="#path-effect3"
     inkscape:label="path2"
     transform="matrix(0.6406347,0,0,0.6406347,172.49535,-172.49534)" />
  <path
     d="m 220,-80 c -38.66667,0 -71.66667,-13.666667 -99,-41 -27.333333,-27.33333 -41,-60.33333 -41,-99 0,-38.66667 13.666667,-71.66667 41,-99 27.33333,-27.33333 60.33333,-41 99,-41 12,0 23.66667,1.5 35,4.5 11.33333,3 22,7.16667 32,12.5 l 153,-153 v -110 c -29.33333,-8.66667 -53.33333,-25.16667 -72,-49.5 -18.66667,-24.33333 -28,-52.5 -28,-84.5 0,-38.66667 13.66667,-71.66667 41,-99 27.33333,-27.33333 60.33333,-41 99,-41 38.66667,0 71.66667,13.66667 99,41 27.33333,27.33333 41,60.33333 41,99 0,32 -9.33333,60.16667 -28,84.5 -18.66667,24.33333 -42.66667,40.83333 -72,49.5 v 110 l 154,153 c 10,-5.33333 20.5,-9.5 31.5,-12.5 11,-3 22.5,-4.5 34.5,-4.5 38.66667,0 71.66667,13.66667 99,41 27.33333,27.33333 41,60.33333 41,99 0,38.66667 -13.66667,71.66667 -41,99 -27.33333,27.333333 -60.33333,41 -99,41 -38.66667,0 -71.66667,-13.666667 -99,-41 -27.33333,-27.33333 -41,-60.33333 -41,-99 0,-12 1.5,-23.66667 4.5,-35 3,-11.33333 7.16667,-22 12.5,-32 L 480,-424 343,-287 c 5.33333,10 9.5,20.66667 12.5,32 3,11.33333 4.5,23 4.5,35 0,38.66667 -13.66667,71.66667 -41,99 -27.33333,27.333333 -60.33333,41 -99,41 z m 520,-80 c 16.66667,0 30.83333,-5.83333 42.5,-17.5 11.66667,-11.66667 17.5,-25.83333 17.5,-42.5 0,-16.66667 -5.83333,-30.83333 -17.5,-42.5 -11.66667,-11.66667 -25.83333,-17.5 -42.5,-17.5 -16.66667,0 -30.83333,5.83333 -42.5,17.5 -11.66667,11.66667 -17.5,25.83333 -17.5,42.5 0,16.66667 5.83333,30.83333 17.5,42.5 11.66667,11.66667 25.83333,17.5 42.5,17.5 z M 480,-680 c 16.66667,0 30.83333,-5.83333 42.5,-17.5 11.66667,-11.66667 17.5,-25.83333 17.5,-42.5 0,-16.66667 -5.83333,-30.83333 -17.5,-42.5 -11.66667,-11.66667 -25.83333,-17.5 -42.5,-17.5 -16.66667,0 -30.83333,5.83333 -42.5,17.5 -11.66667,11.66667 -17.5,25.83333 -17.5,42.5 0,16.66667 5.83333,30.83333 17.5,42.5 11.66667,11.66667 25.83333,17.5 42.5,17.5 z m -260,520 c 16.66667,0 30.83333,-5.83333 42.5,-17.5 11.66667,-11.66667 17.5,-25.83333 17.5,-42.5 0,-16.66667 -5.83333,-30.83333 -17.5,-42.5 -11.66667,-11.66667 -25.83333,-17.5 -42.5,-17.5 -16.66667,0 -30.83333,5.83333 -42.5,17.5 -11.66667,11.66667 -17.5,25.83333 -17.5,42.5 0,16.66667 5.83333,30.83333 17.5,42.5 11.66667,11.66667 25.83333,17.5 42.5,17.5 z"
     id="path18"
     style="opacity:1;mix-blend-mode:normal;fill:#ff5946;fill-opacity:1"
     inkscape:original-d="m 220,-80 q -58,0 -99,-41 -41,-41 -41,-99 0,-58 41,-99 41,-41 99,-41 18,0 35,4.5 17,4.5 32,12.5 l 153,-153 v -110 q -44,-13 -72,-49.5 -28,-36.5 -28,-84.5 0,-58 41,-99 41,-41 99,-41 58,0 99,41 41,41 41,99 0,48 -28,84.5 -28,36.5 -72,49.5 v 110 l 154,153 q 15,-8 31.5,-12.5 16.5,-4.5 34.5,-4.5 58,0 99,41 41,41 41,99 0,58 -41,99 -41,41 -99,41 -58,0 -99,-41 -41,-41 -41,-99 0,-18 4.5,-35 4.5,-17 12.5,-32 L 480,-424 343,-287 q 8,15 12.5,32 4.5,17 4.5,35 0,58 -41,99 -41,41 -99,41 z m 520,-80 q 25,0 42.5,-17.5 Q 800,-195 800,-220 800,-245 782.5,-262.5 765,-280 740,-280 q -25,0 -42.5,17.5 -17.5,17.5 -17.5,42.5 0,25 17.5,42.5 Q 715,-160 740,-160 Z M 480,-680 q 25,0 42.5,-17.5 Q 540,-715 540,-740 540,-765 522.5,-782.5 505,-800 480,-800 q -25,0 -42.5,17.5 -17.5,17.5 -17.5,42.5 0,25 17.5,42.5 17.5,17.5 42.5,17.5 z m -260,520 q 25,0 42.5,-17.5 Q 280,-195 280,-220 280,-245 262.5,-262.5 245,-280 220,-280 q -25,0 -42.5,17.5 -17.5,17.5 -17.5,42.5 0,25 17.5,42.5 17.5,17.5 42.5,17.5 z"
     inkscape:path-effect="#path-effect19"
     transform="matrix(0.6406347,0,0,0.6406347,172.49535,-172.49534)" />
</svg>
