<?xml version="1.0" encoding="UTF-8" standalone="no"?>
<!-- Created with Inkscape (http://www.inkscape.org/) -->

<svg
   width="210mm"
   height="297mm"
   viewBox="0 0 210 297"
   version="1.1"
   id="svg1"
   sodipodi:docname="layout.svg"
   inkscape:version="1.3.2 (1:1.3.2+202404261509+091e20ef0f)"
   xmlns:inkscape="http://www.inkscape.org/namespaces/inkscape"
   xmlns:sodipodi="http://sodipodi.sourceforge.net/DTD/sodipodi-0.dtd"
   xmlns:xlink="http://www.w3.org/1999/xlink"
   xmlns="http://www.w3.org/2000/svg"
   xmlns:svg="http://www.w3.org/2000/svg">
  <sodipodi:namedview
     id="namedview1"
     pagecolor="#ffffff"
     bordercolor="#666666"
     borderopacity="1.0"
     inkscape:showpageshadow="2"
     inkscape:pageopacity="0.0"
     inkscape:pagecheckerboard="0"
     inkscape:deskcolor="#d1d1d1"
     inkscape:document-units="mm"
     showgrid="false"
     showguides="false"
     inkscape:zoom="2"
     inkscape:cx="258.75"
     inkscape:cy="605.75"
     inkscape:window-width="2494"
     inkscape:window-height="1371"
     inkscape:window-x="66"
     inkscape:window-y="32"
     inkscape:window-maximized="1"
     inkscape:current-layer="layer1">
    <inkscape:grid
       id="grid7"
       units="px"
       originx="0"
       originy="0"
       spacingx="0.26458333"
       spacingy="0.26458334"
       empcolor="#0099e5"
       empopacity="0.30196078"
       color="#0099e5"
       opacity="0.14901961"
       empspacing="5"
       dotted="false"
       gridanglex="30"
       gridanglez="30"
       visible="false" />
  </sodipodi:namedview>
  <defs
     id="defs1">
    <symbol
       id="emoji-1f641">
      <title
         id="title16822">1f641</title>
      <circle
         fill="#ffdd67"
         cx="32"
         cy="32"
         r="30"
         id="circle16822" />
      <g
         fill="#664e27"
         id="g16824">
        <path
           d="m 42.684,47 c -1.801,-1.061 -3.541,-1.701 -5.322,-2.127 -1.775,-0.428 -3.566,-0.609 -5.361,-0.613 -1.799,0.008 -3.588,0.189 -5.361,0.615 -1.781,0.428 -3.52,1.068 -5.322,2.125 0.771,-1.979 2.484,-3.533 4.396,-4.527 1.932,-1 4.119,-1.486 6.287,-1.484 2.166,0.004 4.354,0.486 6.283,1.488 1.909,0.996 3.624,2.548 4.4,4.523"
           id="path16823" />
        <circle
           cx="20.5"
           cy="26.591999"
           r="4.5"
           id="circle16823" />
        <circle
           cx="43.5"
           cy="26.591999"
           r="4.5"
           id="circle16824" />
      </g>
    </symbol>
    <symbol
       id="emoji-1f5e1">
      <title
         id="title16151">1f5e1</title>
      <path
         fill="#94989b"
         d="m 36.811,30.423 c 0,0 14.588,8.555 27.19,33.578 L 33.618,33.618 36.812,30.423"
         id="path16152" />
      <path
         fill="#d0d0d0"
         d="m 30.422,36.813 c 0,0 8.555,14.587 33.578,27.19 L 33.617,33.62 30.422,36.815"
         id="path16153" />
      <path
         fill="#3e4347"
         d="m 3.621,13.703 c -1.04,-1.04 -1.041,-2.727 0,-3.769 L 9.935,3.62 c 1.041,-1.042 2.728,-1.041 3.768,-10e-4 l 22.602,25.12 c 1.041,1.039 1.041,2.727 10e-4,3.768 l -3.803,3.801 c -1.041,1.041 -2.728,1.041 -3.768,10e-4 L 3.625,13.707"
         id="path16154" />
      <g
         fill="#d3976e"
         id="g16156">
        <path
           d="m 5.757,13.11 7.35,-7.35 C 14.149,4.718 14.149,3.031 13.11,1.989 L 12.915,1.797 C 12.109,0.99 10.915,0.809 9.931,1.254 7.5,-0.583 4.029,-0.397 1.814,1.816 c -2.213,2.216 -2.402,5.688 -0.56,8.117 -0.446,0.98 -0.266,2.178 0.54,2.986 l 0.195,0.192 c 1.04,1.04 2.726,1.04 3.768,-0.001"
           id="path16155" />
        <path
           d="m 44.24,8.7 c -2.842,-1.294 -5.829,-0.421 -7.622,2.232 -2.01,2.98 -1.278,5.742 -0.039,7.202 1.319,1.554 3.349,2.073 5.05,1.291 0.88,-0.406 1.263,-1.441 0.859,-2.321 -0.403,-0.878 -1.441,-1.264 -2.32,-0.86 -0.252,0.115 -0.64,-0.042 -0.923,-0.375 -0.605,-0.714 -0.504,-1.828 0.272,-2.979 1.121,-1.66 2.529,-1.341 3.271,-1 1.554,0.708 2.801,2.646 2.177,4.98 -1.078,4.04 -5.154,9.676 -11.789,16.317 -6.642,6.635 -12.283,10.71 -16.317,11.789 -2.334,0.624 -4.271,-0.624 -4.979,-2.177 -0.337,-0.74 -0.656,-2.149 1,-3.27 1.151,-0.777 2.265,-0.879 2.979,-0.273 0.333,0.283 0.49,0.672 0.375,0.923 -0.403,0.878 -0.019,1.917 0.86,2.321 0.879,0.402 1.915,0.02 2.32,-0.86 0.782,-1.703 0.263,-3.733 -1.291,-5.05 -1.459,-1.238 -4.221,-1.972 -7.201,0.039 -2.653,1.793 -3.526,4.781 -2.232,7.622 1.317,2.894 4.855,5.233 9.07,4.108 4.692,-1.254 10.711,-5.526 17.888,-12.695 7.17,-7.178 11.441,-13.196 12.695,-17.889 1.126,-4.214 -1.214,-7.752 -4.108,-9.07"
           id="path16156" />
      </g>
    </symbol>
    <symbol
       id="arrow-up">
      <title
         id="title37">arrow-up</title>
      <path
         d="M 7,13 11.03,7 15,13 Z"
         id="path37" />
    </symbol>
  </defs>
  <g
     inkscape:label="Ebene 1"
     inkscape:groupmode="layer"
     id="layer1">
    <rect
       style="fill:#f0f2f6;stroke-width:0.79375;stroke-linecap:round;stroke-linejoin:round;stroke-miterlimit:4.4;stroke:#000000;stroke-opacity:1"
       id="rect1"
       width="44.578014"
       height="71.851753"
       x="32.453873"
       y="20.75289"
       ry="0.94886106" />
    <rect
       style="fill:#f0f2f6;stroke-width:0.79375;stroke-linecap:round;stroke-linejoin:round;stroke-miterlimit:4.4;stroke:#000000;stroke-opacity:1"
       id="rect1-5"
       width="44.578014"
       height="71.851753"
       x="82.710991"
       y="20.75289"
       ry="0.94886106" />
    <rect
       style="fill:#f0f2f6;stroke-width:0.79375;stroke-linecap:round;stroke-linejoin:round;stroke-miterlimit:4.4;stroke:#000000;stroke-opacity:1"
       id="rect1-5-2"
       width="44.578014"
       height="71.851753"
       x="132.96812"
       y="20.75289"
       ry="0.94886106" />
    <text
       xml:space="preserve"
       style="font-style:normal;font-weight:normal;font-size:10.5833px;line-height:1.25;font-family:sans-serif;fill:#000000;fill-opacity:1;stroke:none;stroke-width:0.264583"
       x="32.453873"
       y="34.746731"
       id="text2"><tspan
         sodipodi:role="line"
         id="tspan2"
         style="stroke-width:0.264583"
         x="32.453873"
         y="34.746731" /></text>
    <text
       xml:space="preserve"
       style="font-style:normal;font-weight:normal;font-size:7.05556px;line-height:1.25;font-family:sans-serif;fill:#000000;fill-opacity:1;stroke:none;stroke-width:0.264583"
       x="35.808838"
       y="17.422688"
       id="text3"><tspan
         sodipodi:role="line"
         id="tspan3"
         style="font-style:normal;font-variant:normal;font-weight:normal;font-stretch:normal;font-size:7.05556px;font-family:'Source Sans 3';-inkscape-font-specification:'Source Sans 3, ';stroke-width:0.264583"
         x="35.808838"
         y="17.422688">a_msgs[0]</tspan></text>
    <text
       xml:space="preserve"
       style="font-style:normal;font-weight:normal;font-size:7.05556px;line-height:1.25;font-family:sans-serif;fill:#0000ff;fill-opacity:1;stroke:none;stroke-width:0.264583"
       x="35.808838"
       y="32.179531"
       id="text3-7"><tspan
         sodipodi:role="line"
         id="tspan3-0"
         style="font-style:normal;font-variant:normal;font-weight:normal;font-stretch:normal;font-size:7.05556px;font-family:'Source Sans 3';-inkscape-font-specification:'Source Sans 3, ';fill:#0000ff;stroke-width:0.264583"
         x="35.808838"
         y="32.179531">a_msgs[0][0]</tspan></text>
    <text
       xml:space="preserve"
       style="font-style:normal;font-weight:normal;font-size:7.05556px;line-height:1.25;font-family:sans-serif;fill:#0000ff;fill-opacity:1;stroke:none;stroke-width:0.264583"
       x="35.808838"
       y="39.307667"
       id="text3-0"><tspan
         sodipodi:role="line"
         id="tspan3-6"
         style="font-style:normal;font-variant:normal;font-weight:normal;font-stretch:normal;font-size:7.05556px;font-family:'Source Sans 3';-inkscape-font-specification:'Source Sans 3, ';fill:#0000ff;stroke-width:0.264583"
         x="35.808838"
         y="39.307667">a_msgs[0][1]</tspan></text>
    <text
       xml:space="preserve"
       style="font-style:normal;font-weight:normal;font-size:7.05556px;line-height:1.25;font-family:sans-serif;fill:#0000ff;fill-opacity:1;stroke:none;stroke-width:0.264583"
       x="35.808838"
       y="46.435802"
       id="text3-8"><tspan
         sodipodi:role="line"
         id="tspan3-7"
         style="font-style:normal;font-variant:normal;font-weight:normal;font-stretch:normal;font-size:7.05556px;font-family:'Source Sans 3';-inkscape-font-specification:'Source Sans 3, ';fill:#0000ff;stroke-width:0.264583"
         x="35.808838"
         y="46.435802">a_msgs[0][2]</tspan></text>
    <text
       xml:space="preserve"
       style="font-style:normal;font-weight:normal;font-size:7.05556px;line-height:1.25;font-family:sans-serif;fill:#000000;fill-opacity:1;stroke:none;stroke-width:0.264583"
       x="84.965782"
       y="17.422688"
       id="text4"><tspan
         sodipodi:role="line"
         id="tspan4"
         style="font-style:normal;font-variant:normal;font-weight:normal;font-stretch:normal;font-size:7.05556px;font-family:'Source Sans 3';-inkscape-font-specification:'Source Sans 3, ';stroke-width:0.264583"
         x="84.965782"
         y="17.422688">a_msgs[1]</tspan></text>
    <text
       xml:space="preserve"
       style="font-style:normal;font-weight:normal;font-size:7.05556px;line-height:1.25;font-family:sans-serif;fill:#000000;fill-opacity:1;stroke:none;stroke-width:0.264583"
       x="135.2495"
       y="17.422688"
       id="text5"><tspan
         sodipodi:role="line"
         id="tspan5"
         style="font-style:normal;font-variant:normal;font-weight:normal;font-stretch:normal;font-size:7.05556px;font-family:'Source Sans 3';-inkscape-font-specification:'Source Sans 3, ';stroke-width:0.264583"
         x="135.2495"
         y="17.422688">a_msgs[2]</tspan></text>
    <rect
       style="opacity:0.5;fill:#0000ff;stroke:#000000;stroke-width:0.525184;stroke-linecap:round;stroke-linejoin:round;stroke-miterlimit:4.4;stroke-dasharray:none;stroke-opacity:1"
       id="rect5"
       width="40.794796"
       height="11.210098"
       x="34.318157"
       y="51.134804"
       ry="0.94800872" />
    <rect
       style="opacity:0.5;fill:#fe0000;fill-opacity:1;stroke:#000000;stroke-width:0.525184;stroke-linecap:round;stroke-linejoin:round;stroke-miterlimit:4.4;stroke-dasharray:none;stroke-opacity:1"
       id="rect6"
       width="41.233051"
       height="11.059862"
       x="34.072979"
       y="64.212051"
       ry="0.94800872" />
    <text
       xml:space="preserve"
       style="font-size:7.05556px;line-height:1.25;font-family:'Source Sans 3';-inkscape-font-specification:'Source Sans 3, ';fill:#000000;stroke-width:0.264583"
       x="35.949932"
       y="58.47731"
       id="text6"><tspan
         sodipodi:role="line"
         id="tspan6"
         style="font-size:7.05556px;fill:#000000;fill-opacity:1;stroke-width:0.264583"
         x="35.949932"
         y="58.47731">ground truth</tspan></text>
    <text
       xml:space="preserve"
       style="font-size:7.05556px;line-height:1.25;font-family:'Source Sans 3';-inkscape-font-specification:'Source Sans 3, ';fill:#000000;stroke-width:0.264583"
       x="36.370274"
       y="71.463539"
       id="text6-2"><tspan
         sodipodi:role="line"
         id="tspan6-2"
         style="font-size:7.05556px;fill:#000000;fill-opacity:1;stroke-width:0.264583"
         x="36.370274"
         y="71.463539">gapped data</tspan></text>
    <rect
       style="opacity:1;fill:#ffffff;fill-opacity:1;stroke:#000000;stroke-width:0.794;stroke-linecap:round;stroke-linejoin:round;stroke-miterlimit:4.4;stroke-dasharray:none;stroke-opacity:1"
       id="rect7"
       width="145.886"
       height="111.15125"
       x="32.056999"
       y="98.073013"
       ry="0.94886106" />
    <text
       xml:space="preserve"
       style="font-size:10.5833px;line-height:1.25;font-family:'Source Sans 3';-inkscape-font-specification:'Source Sans 3, ';stroke-width:0.264583"
       x="196.37523"
       y="188.35876"
       id="text7"><tspan
         sodipodi:role="line"
         id="tspan7"
         style="stroke-width:0.264583" /></text>
    <path
       style="fill:none;stroke:#000000;stroke-width:0.5;stroke-linecap:butt;stroke-linejoin:miter;stroke-opacity:1;stroke-dasharray:none"
       d="m 45.726659,107.13838 v 90.86218 l 109.318891,0"
       id="path4" />
    <text
       xml:space="preserve"
       style="font-style:normal;font-weight:normal;font-size:3.52778px;line-height:1.25;font-family:sans-serif;fill:#000000;fill-opacity:1;stroke:none;stroke-width:0.264583"
       x="125.91679"
       y="200.98232"
       id="text8"><tspan
         sodipodi:role="line"
         id="tspan8"
         style="font-style:normal;font-variant:normal;font-weight:normal;font-stretch:normal;font-size:3.52778px;font-family:'Source Sans 3';-inkscape-font-specification:'Source Sans 3, ';stroke-width:0.264583"
         x="125.91679"
         y="200.98232">number of assistant</tspan></text>
    <text
       xml:space="preserve"
       style="font-style:normal;font-weight:normal;font-size:3.52778px;line-height:1.25;font-family:sans-serif;fill:#000000;fill-opacity:1;stroke:none;stroke-width:0.264583"
       x="-137.50615"
       y="44.621155"
       id="text8-5"
       transform="rotate(-90)"><tspan
         sodipodi:role="line"
         id="tspan8-3"
         style="font-style:normal;font-variant:normal;font-weight:normal;font-stretch:normal;font-size:3.52778px;font-family:'Source Sans 3';-inkscape-font-specification:'Source Sans 3, ';stroke-width:0.264583"
         x="-137.50615"
         y="44.621155">BLEU/BERT/METEOR</tspan></text>
    <rect
       style="fill:#a6a3ff;fill-opacity:1;stroke:#000000;stroke-width:0.5;stroke-linecap:round;stroke-linejoin:round;stroke-miterlimit:4.4;stroke-dasharray:none;stroke-opacity:1"
       id="rect8"
       width="6.0953565"
       height="74.91095"
       x="50.973778"
       y="123.02168"
       ry="0" />
    <text
       xml:space="preserve"
       style="font-size:3.52777px;line-height:1.25;font-family:'Source Sans 3';-inkscape-font-specification:'Source Sans 3, ';fill:#000000;stroke-width:0.264583"
       x="-157.88469"
       y="54.866531"
       id="text9"
       transform="rotate(-90)"><tspan
         sodipodi:role="line"
         id="tspan9"
         style="fill:#000000;stroke-width:0.264583"
         x="-157.88469"
         y="54.866531">gt vs  a_msgs[0][0]</tspan></text>
    <rect
       style="fill:#eca3ff;fill-opacity:1;stroke:#000000;stroke-width:0.5;stroke-linecap:round;stroke-linejoin:round;stroke-miterlimit:4.4;stroke-dasharray:none;stroke-opacity:1"
       id="rect8-9"
       width="6.0953598"
       height="79.797791"
       x="59.660019"
       y="118.13077"
       ry="0" />
    <text
       xml:space="preserve"
       style="font-size:3.52777px;line-height:1.25;font-family:'Source Sans 3';-inkscape-font-specification:'Source Sans 3, ';fill:#000000;stroke-width:0.264583"
       x="-157.88062"
       y="63.552773"
       id="text9-1"
       transform="rotate(-90)"><tspan
         sodipodi:role="line"
         id="tspan9-2"
         style="fill:#000000;stroke-width:0.264583"
         x="-157.88062"
         y="63.552773">gt vs  a_msgs[0][1]</tspan></text>
    <rect
       style="fill:#ffcea3;fill-opacity:1;stroke:#000000;stroke-width:0.5;stroke-linecap:round;stroke-linejoin:round;stroke-miterlimit:4.4;stroke-dasharray:none;stroke-opacity:1"
       id="rect8-9-3"
       width="6.0953598"
       height="82.180511"
       x="68.359573"
       y="115.70813"
       ry="0" />
    <text
       xml:space="preserve"
       style="font-size:3.52777px;line-height:1.25;font-family:'Source Sans 3';-inkscape-font-specification:'Source Sans 3, ';fill:#000000;stroke-width:0.264583"
       x="-157.8407"
       y="72.252327"
       id="text9-1-6"
       transform="rotate(-90)"><tspan
         sodipodi:role="line"
         id="tspan9-2-0"
         style="fill:#000000;stroke-width:0.264583"
         x="-157.8407"
         y="72.252327">gt vs  a_msgs[0][2]</tspan></text>
    <use
       xlink:href="#arrow-up"
       style="fill:#000000;stroke:none;stroke-opacity:1;stroke-width:1.00157481;stroke-dasharray:none"
       id="use1"
       transform="matrix(0.26458333,0,0,0.26458333,42.816242,103.6988)" />
    <use
       xlink:href="#arrow-up"
       style="fill:#000000;stroke:none;stroke-width:1.00157;stroke-dasharray:none;stroke-opacity:1"
       id="use1-0"
       transform="matrix(0,0.26458333,-0.26458333,0,158.48513,195.09014)" />
  </g>
</svg>
